<svg id="Layer_1" data-name="Layer 1" xmlns="http://www.w3.org/2000/svg" viewBox="0 0 321.94 156.2"><defs><style>.cls-1{font-size:98px;fill:#fff;stroke:#fff;stroke-miterlimit:10;font-family:PoorRichard-Regular, Poor Richard;}.cls-2{fill:#dff5ff;}.cls-3{fill:#b4f9ff;}.cls-4{fill:#9fd5ff;}</style></defs><title>breeze-v2</title><text class="cls-1" transform="translate(0.5 83.8)">Breeze</text><path class="cls-2" d="M357.33,339.61a7.83,7.83,0,0,1-2.15,3.83,11.49,11.49,0,0,1-3.63,2.42,12.48,12.48,0,0,1-8.72.51,10,10,0,0,1-6.3-6.56,12.5,12.5,0,0,1,.91-9.14,13.16,13.16,0,0,1,2.82-3.75,19.7,19.7,0,0,1,3.61-2.71A29.64,29.64,0,0,1,352,321a49.76,49.76,0,0,1,8.43-1.26l4.2-.2,4.2,0c11.21.38,22.12,2.82,32.67,5.58s20.81,6,31.11,8a196.47,196.47,0,0,0,31.47,3.25c10.65.36,21.13.74,31.33,0,2.55-.16,5.08-.44,7.59-.81s5-.8,7.44-1.38a66.77,66.77,0,0,0,14.17-5,43.27,43.27,0,0,0,12.21-8.58,18.41,18.41,0,0,0,4.2-5.89,8.37,8.37,0,0,0,.13-7l1-.69a8.72,8.72,0,0,1,2.15,3.95,12.55,12.55,0,0,1,.18,4.61,21.72,21.72,0,0,1-3.3,8.36,43,43,0,0,1-5.47,6.86,48.78,48.78,0,0,1-6.72,5.63c-9.58,6.74-21,10.29-32.29,11.82s-22.56,1.06-33.46-.08a249.11,249.11,0,0,1-32.71-5.73c-10.82-2.72-21.08-6.45-31.27-9.74s-20.36-6.26-30.78-7.25l-3.91-.3-3.91-.09a46.18,46.18,0,0,0-7.65.58,25.73,25.73,0,0,0-7.08,2.2,15.61,15.61,0,0,0-3,1.93,9.34,9.34,0,0,0-2.23,2.55,9.14,9.14,0,0,0-1.15,6.55,7.18,7.18,0,0,0,4.19,5,10.32,10.32,0,0,0,7.15.12c2.34-.77,4.56-2.42,5.28-4.78Z" transform="translate(-237.86 -212.02)"/><path class="cls-3" d="M336.6,316.83a32.12,32.12,0,0,1,7.62-7.5,44.26,44.26,0,0,1,9.53-5,63.73,63.73,0,0,1,21.2-4,99.78,99.78,0,0,1,21.44,2.3c7,1.51,13.77,3.54,20.44,5.56s13.28,3.82,20,5.52,13.24,3.67,19.76,5.89c3.25,1.12,6.53,2.25,9.74,3.41s6.37,2.24,9.54,3.23c6.35,1.94,12.7,3.38,19.72,3.08l.35,1.15a30.32,30.32,0,0,1-10.43,3.63,51,51,0,0,1-11.09.49,91.84,91.84,0,0,1-10.77-1.33c-3.5-.62-6.91-1.34-10.34-2.11a152.15,152.15,0,0,1-20.1-6.12c-6.54-2.51-13.05-5.24-19.5-7.77s-12.81-5-19.28-6.9a92.7,92.7,0,0,0-19.62-4,60.17,60.17,0,0,0-19.86,1.59,41.58,41.58,0,0,0-9.36,3.61,30.11,30.11,0,0,0-8,6.1Z" transform="translate(-237.86 -212.02)"/><path class="cls-4" d="M384.36,339.89a60.86,60.86,0,0,1,11.93,1.5c3.93.87,7.76,2.05,11.55,3.29s7.5,2.59,11.23,3.79c1.86.6,3.71,1.21,5.59,1.74s3.75,1.1,5.63,1.6a181.43,181.43,0,0,0,22.78,4.74A147.66,147.66,0,0,0,476,358.26a112.68,112.68,0,0,0,22.55-2.44,199.31,199.31,0,0,0,21.55-5.92,111.94,111.94,0,0,0,20.39-9.19c1.64-.91,3.19-2,4.81-3l2.32-1.64c.4-.27.8-.53,1.18-.82l1.13-.88,2.29-1.76c.73-.63,1.44-1.28,2.19-1.9l1.13-.95,1.05-1c.72-.67,1.43-1.36,2.18-2l1,.65c-.37.95-.79,1.87-1.2,2.82L558,331.6l-.75,1.35c-.49.9-1,1.79-1.55,2.68l-1.76,2.57-.9,1.27c-.32.41-.66.81-1,1.21l-2,2.4c-.7.78-1.44,1.5-2.17,2.25a30.9,30.9,0,0,1-2.26,2.18,78.13,78.13,0,0,1-21,13.56,83,83,0,0,1-24.1,6.48,150,150,0,0,1-24.7.31,158,158,0,0,1-24.12-3.46,186.64,186.64,0,0,1-23.14-6.88c-1.88-.69-3.75-1.4-5.61-2.16s-3.7-1.53-5.53-2.32c-3.68-1.58-7.26-3.25-10.84-4.86-7.16-3.18-14.45-6-22.22-7.1Z" transform="translate(-237.86 -212.02)"/></svg>